<?xml version="1.0" standalone="no"?>
<!DOCTYPE svg PUBLIC "-//W3C//DTD SVG 20010904//EN"
 "http://www.w3.org/TR/2001/REC-SVG-20010904/DTD/svg10.dtd">
<svg version="1.0" xmlns="http://www.w3.org/2000/svg"
 width="512.000000pt" height="512.000000pt" viewBox="0 0 512.000000 512.000000"
 preserveAspectRatio="xMidYMid meet">

<g transform="translate(0.000000,512.000000) scale(0.100000,-0.100000)"
fill="#000000" stroke="none">
<path d="M2356 5035 c-484 -92 -865 -466 -956 -941 l-12 -61 -46 8 c-26 4 -95
8 -153 8 -312 2 -600 -115 -830 -337 -388 -373 -470 -973 -197 -1437 108 -183
284 -356 451 -441 26 -13 47 -26 47 -28 0 -2 -16 -42 -36 -88 -111 -259 -125
-572 -37 -837 139 -419 491 -720 937 -797 129 -23 337 -14 467 19 184 48 350
133 494 256 l75 63 46 -38 c200 -171 412 -272 638 -303 495 -69 985 182 1211
620 102 197 141 376 132 603 -6 160 -31 273 -91 414 -20 46 -36 86 -36 88 0 2
19 13 43 25 133 68 327 244 415 379 311 473 256 1075 -134 1480 -177 184 -398
300 -654 344 -95 16 -268 20 -350 8 l-45 -7 -26 105 c-110 440 -428 762 -868
877 -123 32 -362 41 -485 18z m409 -410 c208 -56 399 -215 494 -409 56 -113
73 -188 81 -356 7 -162 16 -189 76 -238 46 -38 111 -55 161 -43 21 5 79 21
128 37 80 24 106 28 230 28 120 1 151 -2 215 -22 273 -86 466 -281 542 -548
32 -112 32 -296 0 -407 -57 -201 -182 -366 -354 -469 -37 -22 -118 -58 -180
-80 -122 -43 -159 -69 -189 -133 -37 -81 -24 -136 64 -261 110 -159 147 -263
154 -439 4 -86 1 -140 -10 -192 -91 -424 -502 -694 -925 -607 -200 41 -352
142 -491 328 -78 104 -125 136 -201 136 -76 0 -123 -32 -201 -136 -139 -186
-291 -287 -491 -328 -423 -87 -834 183 -925 607 -11 52 -14 106 -10 192 7 176
44 280 154 439 88 125 101 180 64 261 -30 64 -67 90 -189 133 -240 85 -387
213 -486 423 -56 118 -71 187 -70 329 0 147 22 239 85 360 98 190 262 323 479
392 64 20 95 23 215 22 124 0 150 -4 230 -28 149 -47 162 -48 220 -31 62 18
118 73 134 132 6 21 11 85 11 143 0 117 23 230 64 325 100 224 309 395 551
449 87 19 283 15 370 -9z"/>
<path d="M2445 3230 c-283 -43 -531 -242 -631 -506 -147 -390 26 -824 400
-1004 127 -61 190 -74 346 -74 156 0 219 13 346 74 188 90 338 256 405 446
108 309 31 627 -205 851 -179 171 -422 249 -661 213z m208 -405 c125 -32 215
-107 270 -223 29 -61 32 -76 32 -162 0 -86 -3 -101 -31 -161 -91 -192 -293
-283 -486 -218 -114 38 -188 106 -242 219 -28 58 -31 74 -31 160 0 86 3 101
31 160 40 82 87 136 155 177 98 59 199 75 302 48z"/>
</g>
</svg>
